<svg fill="none" height="100%" width="100%" viewBox="0 0 537 984" xmlns:xlink="http://www.w3.org/1999/xlink" xmlns="http://www.w3.org/2000/svg"><g transform="matrix(1,0,0,1,27.587,56)" visibility="visible" id="i0"><animate repeatCount="indefinite" begin="0s" calcMode="discrete" dur="0.583s" values="visible; hidden; hidden; hidden" keyTimes="0; 0.142918; 0.999429; 1" attributeName="visibility" /><g id="i0"><path stroke-width="1" stroke-opacity="0" stroke="#000000" fill="#2d2c2c" d="M253.237,196.957C199.592,184.293,166.37,130.54,179.034,76.895C191.697,23.25,245.451,-9.972,299.096,2.692C352.741,15.356,385.962,69.109,373.298,122.754C362.454,168.688,321.483,199.648,276.251,199.649C268.658,199.649,260.948,198.777,253.237,196.957ZM384.215,844.84C356.055,755.906,291.811,616.116,243.557,547.006C243.557,547.006,243.557,546.814,243.557,546.814C237.359,601.159,218.872,677.644,198.963,715.74C175.462,760.711,127.353,802.944,51.899,844.87C46.531,847.854,40.711,849.269,34.974,849.269C22.693,849.269,10.79,842.786,4.406,831.297C-4.968,814.434,1.107,793.17,17.971,783.796C80.237,749.207,120.302,715.416,137.051,683.38C151.362,656.004,165.596,588.933,171.149,538.056C171.149,538.056,179.407,335.008,179.407,335.008C157.214,353.603,140.996,375.673,130.999,401.12C114.627,442.815,106.129,492.769,106.052,493.269C103.591,507.895,90.918,518.254,76.561,518.254C74.908,518.254,73.247,518.122,71.563,517.838C55.26,515.1,44.256,499.667,46.994,483.356C47.378,481.065,56.629,426.673,75.269,379.226C105.037,303.456,178.908,236.069,263.39,239.507C312.067,241.491,313.405,304.249,329.77,338.131C343.45,366.461,362.883,390.392,388.614,408.54C424.81,434.063,461.73,448.643,462.099,448.782C477.503,454.803,485.1,472.175,479.078,487.57C474.456,499.39,463.153,506.619,451.187,506.619C447.565,506.619,443.874,505.95,440.29,504.55C438.506,503.858,396.166,487.14,354.101,457.471C333.054,442.63,315.336,425.389,300.333,405.049C300.333,405.049,296.456,500.359,296.456,500.359C350.863,574.775,420.043,726.583,450.81,823.746C456.639,842.14,446.45,861.773,428.063,867.594C424.548,868.702,420.996,869.232,417.505,869.232C402.679,869.232,388.929,859.728,384.215,844.84Z" /></g></g><g transform="matrix(1,0,0,1,54.587,60)" visibility="hidden" id="i1"><animate repeatCount="indefinite" begin="0s" calcMode="discrete" dur="0.583s" values="hidden; visible; hidden; hidden; hidden" keyTimes="0; 0.142918; 0.285837; 0.999429; 1" attributeName="visibility" /><g id="i1"><path stroke-width="1" stroke-opacity="0" stroke="#000000" fill="#2d2c2c" d="M179.465,99.635C179.465,44.609,224.072,0,279.099,0C334.126,0,378.734,44.609,378.734,99.635C378.734,154.662,334.126,199.27,279.099,199.27C224.072,199.27,179.465,154.662,179.465,99.635ZM322.907,859.349C305.274,851.597,297.261,831.019,305.013,813.393C351.384,707.887,292.531,619.713,244.553,548.726C244.515,549.972,244.477,551.126,244.446,552.388C243.062,604.502,241.501,663.584,216.524,709.378C193.445,751.673,123.751,785.455,38.946,795.422C37.571,795.591,36.194,795.676,34.832,795.676C17.392,795.676,2.327,782.618,0.243,764.87C-2.012,745.745,11.671,728.412,30.803,726.166C101.598,717.829,146.937,691.292,155.288,675.981C172.222,644.936,173.744,594.79,174.728,550.542C175.79,502.487,182.21,338.367,182.21,338.367C171.737,350.348,163.733,363.536,158.549,378.016C136.556,439.498,168.016,505.647,168.339,506.301C175.521,521.127,169.384,539.006,154.589,546.235C150.352,548.311,145.869,549.295,141.454,549.295C130.45,549.295,119.875,543.197,114.677,532.654C112.916,529.071,71.79,443.997,102.051,358.476C112.27,329.6,129.742,303.885,152.274,283.183C178.389,259.198,214.348,233.637,251.659,235.152C251.659,235.152,266.347,235.751,266.347,235.751C279.712,236.297,292.301,243.119,300.068,254.008C311.095,269.48,307.773,285.222,312.118,310.76C314.948,327.37,318.547,343.888,323.253,360.091C332.042,390.344,346.515,418.158,370.077,439.537C382.489,450.81,396.654,460.022,411.487,467.774C426.122,475.418,431.783,493.482,424.138,508.109C418.802,518.321,408.397,524.164,397.623,524.164C392.956,524.164,388.226,523.065,383.804,520.766C345.716,500.864,319.662,477.656,301.144,452.148C301.144,452.148,299.007,504.709,299.007,504.709C299.83,505.939,300.576,507.063,301.414,508.3C353.022,584.654,431.021,700.042,368.862,841.454C363.117,854.519,350.33,862.302,336.919,862.302C332.235,862.302,327.475,861.356,322.907,859.349Z" /></g></g><g transform="matrix(1,0,0,1,95.587,61)" visibility="hidden" id="i2"><animate repeatCount="indefinite" begin="0s" calcMode="discrete" dur="0.583s" values="hidden; visible; hidden; hidden; hidden" keyTimes="0; 0.285837; 0.428755; 0.999429; 1" attributeName="visibility" /><g id="i2"><path stroke-width="1" stroke-opacity="0" stroke="#000000" fill="#2d2c2c" d="M146.517,99.632C146.517,44.61,191.127,0,246.148,0C301.179,0,345.788,44.61,345.788,99.632C345.788,154.662,301.179,199.271,246.148,199.271C191.127,199.271,146.517,154.662,146.517,99.632ZM255.768,855.412C238.874,846.153,232.692,824.952,241.95,808.064C303.408,695.936,262.666,626.98,218.517,562.038C227.978,600.435,234.929,645.029,217.342,690.762C197.402,742.616,110.973,771.975,35.896,774.183C35.55,774.19,35.204,774.19,34.858,774.19C16.072,774.19,0.568,759.248,0.015,740.346C-0.547,721.098,14.603,705.034,33.851,704.465C103.237,702.427,147.309,675.397,152.353,665.469C164.65,633.471,155.998,597.628,146.663,562.676C145.595,561.708,144.487,560.801,143.549,559.654C141.018,556.563,81.69,483.017,91.794,392.859C97.4,342.835,122.77,298.387,167.172,260.521C181.452,248.394,202,239.051,218.711,238.49C218.711,238.49,233.399,239.082,233.399,239.082C257.437,240.066,276.131,260.345,275.154,284.384C275.154,284.384,271.156,382.701,271.156,382.701C275.808,426.157,290.865,464.484,331.915,503.257C343.918,514.6,344.458,533.517,333.122,545.513C327.239,551.742,319.318,554.879,311.39,554.879C304.9,554.879,298.462,552.649,293.056,548.428C336.905,617.96,375.248,709.979,303.1,841.593C296.764,853.159,284.821,859.711,272.494,859.711C266.828,859.711,261.082,858.326,255.768,855.412Z" /></g></g><g transform="matrix(1,0,0,1,151.587,57)" visibility="hidden" id="i3"><animate repeatCount="indefinite" begin="0s" calcMode="discrete" dur="0.583s" values="hidden; visible; hidden; hidden; hidden" keyTimes="0; 0.428755; 0.570674; 0.999429; 1" attributeName="visibility" /><g id="i3"><path stroke-width="1" stroke-opacity="0" stroke="#000000" fill="#2d2c2c" d="M33.926,99.632C33.926,44.61,78.535,0,133.558,0C188.579,0,233.189,44.61,233.189,99.632C233.189,154.662,188.579,199.271,133.558,199.271C78.535,199.271,33.926,154.662,33.926,99.632ZM110.242,865.578C94.023,858.388,86.418,839.477,91.363,822.444C97.922,799.836,102.767,778.642,106.044,758.202C89.625,768.629,70.323,778.258,47.729,787.263C43.5,788.954,39.125,789.755,34.818,789.755C20.054,789.755,6.142,780.31,1.45,765.015C-3.909,747.544,6.095,728.834,23.052,722.021C84.227,697.42,100.306,674.558,105.889,659.594C108.012,653.927,107.065,647.636,103.327,642.884C97.353,635.278,87.517,625.565,80.742,618.898C64.109,602.503,48.061,588.939,38.625,565.438C31.642,548.036,31.781,525.596,31.781,525.596C8.825,471.474,-4.301,387.329,38.816,295.618C49.198,267.119,77.536,244.518,102.336,240.697C132.058,236.121,163.902,251.386,162.564,284.384C162.564,284.384,155.982,446.05,155.982,446.05C161.519,472.243,171.208,501.349,187.433,536.7C192.755,548.296,191.44,562.308,183.02,571.897C177.137,578.595,170.038,580.994,163.041,581.371C167.678,597.305,171.447,612.939,174.246,628.372C176.053,637.655,176.982,643.721,178.129,653.903C185.234,714.4,178.243,773.905,157.857,843.515C153.404,858.726,139.494,868.6,124.406,868.6C119.707,868.6,114.909,867.654,110.242,865.578Z" /></g></g><g transform="matrix(1,0,0,1,158.587,50)" visibility="hidden" id="i4"><animate repeatCount="indefinite" begin="0s" calcMode="discrete" dur="0.583s" values="hidden; visible; hidden; hidden; hidden" keyTimes="0; 0.570674; 0.713592; 0.999429; 1" attributeName="visibility" /><g id="i4"><path stroke-width="1" stroke-opacity="0" stroke="#000000" fill="#2d2c2c" d="M19.2,99.635C19.2,44.608,63.807,0,118.834,0C173.861,0,218.469,44.608,218.469,99.635C218.469,154.662,173.861,199.269,118.834,199.269C63.807,199.269,19.2,154.662,19.2,99.635ZM20.424,880.047C4.121,872.849,-3.493,853.87,1.53,836.775C1.53,836.775,7.412,816.765,7.412,816.765C31.035,736.513,46.531,683.812,52.953,605.021C40.217,592.671,30.59,583.459,21.87,562.45C16.955,550.623,14.941,528.975,14.395,501.753C13.464,455.067,23.738,322.46,23.738,322.46C31.006,274.167,61.995,237.294,106.082,239.086C130.121,240.063,148.816,260.341,147.839,284.387C147.839,284.387,138.82,506.066,138.82,506.066C144.217,517.701,150.976,529.829,159.575,542.663C168.003,555.244,166.904,572.523,155.668,582.674C150.923,586.965,145.325,589.372,139.611,590.142C153.861,604.753,166.164,621.694,169.941,643.418C175.976,678.115,173.063,721.764,111.481,805.523C104.652,814.828,94.078,819.742,83.358,819.742C82.012,819.742,80.668,819.588,79.322,819.427C77.684,825.002,76.023,830.654,74.316,836.46C74.316,836.46,67.986,857.961,67.986,857.961C63.541,873.172,49.631,883.046,34.543,883.046C29.859,883.046,25.077,882.107,20.424,880.047Z" /></g></g><g transform="matrix(1,0,0,1,103.587,52)" visibility="hidden" id="i5"><animate repeatCount="indefinite" begin="0s" calcMode="discrete" dur="0.583s" values="hidden; visible; hidden; hidden; hidden" keyTimes="0; 0.713592; 0.85651; 0.999429; 1" attributeName="visibility" /><g id="i5"><path stroke-width="1" stroke-opacity="0" stroke="#000000" fill="#2d2c2c" d="M92.106,99.639C92.106,44.609,136.716,0,191.737,0C246.759,0,291.369,44.609,291.369,99.639C291.369,154.661,246.759,199.271,191.737,199.271C136.716,199.271,92.106,154.661,92.106,99.639ZM235.147,849.114C224.172,794.246,200.204,716.331,176.696,658.679C167.351,716.57,128.817,796.007,59.354,864.478C52.564,871.176,43.711,874.514,34.869,874.514C25.864,874.514,16.858,871.053,10.038,864.132C-3.482,850.412,-3.327,828.328,10.392,814.809C122.934,703.865,119.274,611.054,111.461,551.08C107.963,556.348,102.88,560.608,96.45,562.83C93.213,563.953,89.906,564.484,86.661,564.484C74.31,564.484,62.767,556.786,58.469,544.46C35.883,479.687,36.207,401.349,61.753,337.837C82.146,287.153,118.936,236.644,178.98,239.081C191.676,239.604,203.702,245.781,211.515,255.793C222.72,270.15,221.236,292.427,221.198,309.66C221.143,329.455,222.759,349.333,227.073,368.681C233.179,396.042,245.113,421.043,261.615,443.62C287.492,479.033,318.006,504.909,318.306,505.163C330.925,515.791,332.548,534.639,321.937,547.266C316.03,554.295,307.563,557.932,299.043,557.932C292.268,557.932,285.463,555.633,279.865,550.942C278.396,549.711,235.024,514.353,204.709,472.85C204.534,472.62,201.903,546.62,201.903,546.62C243.199,626.572,284.356,739.546,303.535,835.425C307.31,854.32,295.068,872.683,276.181,876.467C273.873,876.929,271.575,877.151,269.306,877.151C253.019,877.151,238.462,865.693,235.147,849.114Z" /></g></g><g transform="matrix(1,0,0,1,27.587,56)" visibility="hidden" id="i6"><animate repeatCount="indefinite" begin="0s" calcMode="discrete" dur="0.583s" values="hidden; visible; visible; visible" keyTimes="0; 0.85651; 0.999429; 1" attributeName="visibility" /><g id="i6"><path stroke-width="1" stroke-opacity="0" stroke="#000000" fill="#2d2c2c" d="M176.506,105.157C173.55,50.117,215.772,3.102,270.812,0.146C325.852,-2.81,372.866,39.413,375.823,94.453C378.779,149.493,336.557,196.508,281.517,199.464C279.696,199.562,277.88,199.61,276.078,199.61C223.411,199.612,179.365,158.377,176.506,105.157ZM384.21,844.82C356.048,755.885,291.806,616.096,243.559,546.987C243.559,546.987,243.559,546.794,243.559,546.794C237.353,601.139,218.875,677.624,198.965,715.721C175.456,760.691,127.356,802.924,51.902,844.851C46.525,847.834,40.705,849.249,34.968,849.249C22.695,849.249,10.783,842.767,4.401,831.278C-4.966,814.414,1.109,793.151,17.974,783.777C80.239,749.187,120.304,715.397,137.045,683.361C151.357,655.984,165.59,588.913,171.143,538.036C171.143,538.036,179.409,334.989,179.409,334.989C157.216,353.583,140.997,375.654,131.001,401.1C114.621,442.795,106.132,492.749,106.047,493.249C103.594,507.876,90.914,518.234,76.556,518.234C74.911,518.234,73.241,518.103,71.565,517.819C55.253,515.081,44.258,499.647,46.987,483.336C47.372,481.045,56.625,426.653,75.264,379.206C105.032,303.437,178.901,236.05,263.392,239.487C312.069,241.471,313.401,304.229,329.764,338.111C343.453,366.44,362.878,390.373,388.609,408.521C424.805,434.043,461.733,448.624,462.101,448.763C477.496,454.784,485.102,472.156,479.08,487.551C474.459,499.37,463.155,506.599,451.189,506.599C447.559,506.599,443.869,505.93,440.293,504.53C438.508,503.838,396.159,487.12,354.095,457.452C333.055,442.61,315.331,425.369,300.327,405.029C300.327,405.029,296.451,500.339,296.451,500.339C350.858,574.755,420.045,726.563,450.812,823.726C456.634,842.121,446.452,861.753,428.057,867.575C424.551,868.682,420.991,869.213,417.499,869.213C402.68,869.213,388.923,859.708,384.21,844.82Z" /></g></g></svg>